<?xml version="1.0" encoding="UTF-8" standalone="no"?>
<svg
   id="preview"
   width="1096.7623"
   height="1096.7633"
   viewBox="0 0 1096.7623 1096.7633"
   xunitlength="63"
   yunitlength="63"
   xmin="-10"
   xmax="5"
   ymin="-5"
   ymax="10"
   ox="710"
   oy="395"
   version="1.1"
   sodipodi:docname="ParallelandPerpendicularLinesLesson3.svg"
   inkscape:version="1.1.1 (3bf5ae0d25, 2021-09-20)"
   xmlns:inkscape="http://www.inkscape.org/namespaces/inkscape"
   xmlns:sodipodi="http://sodipodi.sourceforge.net/DTD/sodipodi-0.dtd"
   xmlns="http://www.w3.org/2000/svg"
   xmlns:svg="http://www.w3.org/2000/svg">
  <sodipodi:namedview
     id="namedview1010"
     pagecolor="#ffffff"
     bordercolor="#cccccc"
     borderopacity="1"
     inkscape:pageshadow="0"
     inkscape:pageopacity="1"
     inkscape:pagecheckerboard="0"
     showgrid="false"
     fit-margin-top="2"
     lock-margins="true"
     fit-margin-left="2"
     fit-margin-right="2"
     fit-margin-bottom="2"
     inkscape:zoom="0.77095436"
     inkscape:cx="564.23574"
     inkscape:cy="498.73251"
     inkscape:window-width="1920"
     inkscape:window-height="1137"
     inkscape:window-x="1912"
     inkscape:window-y="-8"
     inkscape:window-maximized="1"
     inkscape:current-layer="preview" />
  <defs
     id="defs920">
    <style
       type="text/css"
       id="style918">@import url(&quot;http://cdnjs.cloudflare.com/ajax/libs/KaTeX/0.2.0/katex.min.css&quot;)</style>
  </defs>
  <path
     d="M 705.88114,75.882139 V 1020.8821 m 63,-944.999961 V 1020.8821 m 63,-944.999961 V 1020.8821 m 63,-944.999961 V 1020.8821 m 63,-944.999961 V 1020.8821 M 1020.8811,75.882139 V 1020.8821 M 642.88114,75.882139 V 1020.8821 m -63,-944.999961 V 1020.8821 m -63,-944.999961 V 1020.8821 m -63,-944.999961 V 1020.8821 m -63,-944.999961 V 1020.8821 m -63,-944.999961 V 1020.8821 m -63,-944.999961 V 1020.8821 m -63,-944.999961 V 1020.8821 m -63,-944.999961 V 1020.8821 M 75.881139,75.882139 V 1020.8821 m 0,-314.99996 H 1020.8811 m -944.999961,63 H 1020.8811 m -944.999961,63 H 1020.8811 m -944.999961,63 H 1020.8811 m -944.999961,63 H 1020.8811 M 75.881139,1020.8821 H 1020.8811 M 75.881139,642.88214 H 1020.8811 m -944.999961,-63 H 1020.8811 m -944.999961,-63 H 1020.8811 m -944.999961,-63 H 1020.8811 m -944.999961,-63 H 1020.8811 m -944.999961,-63 H 1020.8811 m -944.999961,-63 H 1020.8811 m -944.999961,-63 H 1020.8811 m -944.999961,-63 H 1020.8811 M 75.881139,75.882139 H 1020.8811"
     stroke-width="1"
     stroke="#808080"
     fill="none"
     id="path922" />
  <path
     d="m 46.961139,720.34214 -43.3800002,-14.46 43.3800002,-14.46 -7.23,14.46 z"
     stroke-width="1"
     stroke="#000000"
     fill="#000000"
     id="path924" />
  <path
     d="m 1049.8011,691.42214 43.38,14.46 -43.38,14.46 7.23,-14.46 z"
     stroke-width="1"
     stroke="#000000"
     fill="#000000"
     id="path926" />
  <path
     d="m 691.42114,46.961139 14.46,-43.3800002 14.46,43.3800002 -14.46,-7.229 z"
     stroke-width="1"
     stroke="#000000"
     fill="#000000"
     id="path928" />
  <path
     d="m 720.34114,1049.8021 -14.46,43.38 -14.46,-43.38 14.46,7.23 z"
     stroke-width="1"
     stroke="#000000"
     fill="#000000"
     id="path930" />
  <path
     d="M 39.731139,705.88214 H 1057.0311 M 705.88114,39.732139 V 1057.0321 m 0,-341.39996 v -19.5 m 63,19.5 v -19.5 m 63,19.5 v -19.5 m 63,19.5 v -19.5 m 63,19.5 v -19.5 m 62.99996,19.5 v -19.5 m -377.99996,19.5 v -19.5 m -63,19.5 v -19.5 m -63,19.5 v -19.5 m -63,19.5 v -19.5 m -63,19.5 v -19.5 m -63,19.5 v -19.5 m -63,19.5 v -19.5 m -63,19.5 v -19.5 m -63,19.5 v -19.5 m -63.000001,19.5 v -19.5 m 639.750001,9.75 h -19.5 m 19.5,63 h -19.5 m 19.5,63 h -19.5 m 19.5,63 h -19.5 m 19.5,63 h -19.5 m 19.5,62.99996 h -19.5 m 19.5,-377.99996 h -19.5 m 19.5,-63 h -19.5 m 19.5,-63 h -19.5 m 19.5,-63 h -19.5 m 19.5,-63 h -19.5 m 19.5,-63 h -19.5 m 19.5,-63 h -19.5 m 19.5,-63 h -19.5 m 19.5,-63 h -19.5 m 19.5,-63.000001 h -19.5"
     stroke-width="2"
     stroke="#000000"
     fill="none"
     id="path932" />
  <text
     id="null"
     x="768.88116"
     y="746.88214"
     font-style=""
     font-family="KaTeX_Main, serif"
     font-size="39px"
     font-weight="normal"
     text-anchor="middle"
     fill="#000000"
     stroke-width="0px">1</text>
  <text
     id="text935"
     x="831.88116"
     y="746.88214"
     font-style=""
     font-family="KaTeX_Main, serif"
     font-size="39px"
     font-weight="normal"
     text-anchor="middle"
     fill="#000000"
     stroke-width="0px">2</text>
  <text
     id="text937"
     x="894.88116"
     y="746.88214"
     font-style=""
     font-family="KaTeX_Main, serif"
     font-size="39px"
     font-weight="normal"
     text-anchor="middle"
     fill="#000000"
     stroke-width="0px">3</text>
  <text
     id="text939"
     x="957.88116"
     y="746.88214"
     font-style=""
     font-family="KaTeX_Main, serif"
     font-size="39px"
     font-weight="normal"
     text-anchor="middle"
     fill="#000000"
     stroke-width="0px">4</text>
  <text
     id="text941"
     x="1020.8812"
     y="746.88214"
     font-style=""
     font-family="KaTeX_Main, serif"
     font-size="39px"
     font-weight="normal"
     text-anchor="middle"
     fill="#000000"
     stroke-width="0px">5</text>
  <text
     id="text943"
     x="642.88116"
     y="746.88214"
     font-style=""
     font-family="KaTeX_Main, serif"
     font-size="39px"
     font-weight="normal"
     text-anchor="middle"
     fill="#000000"
     stroke-width="0px">-1</text>
  <text
     id="text945"
     x="579.88116"
     y="746.88214"
     font-style=""
     font-family="KaTeX_Main, serif"
     font-size="39px"
     font-weight="normal"
     text-anchor="middle"
     fill="#000000"
     stroke-width="0px">-2</text>
  <text
     id="text947"
     x="516.88116"
     y="746.88214"
     font-style=""
     font-family="KaTeX_Main, serif"
     font-size="39px"
     font-weight="normal"
     text-anchor="middle"
     fill="#000000"
     stroke-width="0px">-3</text>
  <text
     id="text949"
     x="453.88113"
     y="746.88214"
     font-style=""
     font-family="KaTeX_Main, serif"
     font-size="39px"
     font-weight="normal"
     text-anchor="middle"
     fill="#000000"
     stroke-width="0px">-4</text>
  <text
     id="text951"
     x="390.88113"
     y="746.88214"
     font-style=""
     font-family="KaTeX_Main, serif"
     font-size="39px"
     font-weight="normal"
     text-anchor="middle"
     fill="#000000"
     stroke-width="0px">-5</text>
  <text
     id="text953"
     x="327.88113"
     y="746.88214"
     font-style=""
     font-family="KaTeX_Main, serif"
     font-size="39px"
     font-weight="normal"
     text-anchor="middle"
     fill="#000000"
     stroke-width="0px">-6</text>
  <text
     id="text955"
     x="264.88113"
     y="746.88214"
     font-style=""
     font-family="KaTeX_Main, serif"
     font-size="39px"
     font-weight="normal"
     text-anchor="middle"
     fill="#000000"
     stroke-width="0px">-7</text>
  <text
     id="text957"
     x="201.88113"
     y="746.88214"
     font-style=""
     font-family="KaTeX_Main, serif"
     font-size="39px"
     font-weight="normal"
     text-anchor="middle"
     fill="#000000"
     stroke-width="0px">-8</text>
  <text
     id="text959"
     x="138.88113"
     y="746.88214"
     font-style=""
     font-family="KaTeX_Main, serif"
     font-size="39px"
     font-weight="normal"
     text-anchor="middle"
     fill="#000000"
     stroke-width="0px">-9</text>
  <text
     id="text961"
     x="75.881142"
     y="746.88214"
     font-style=""
     font-family="KaTeX_Main, serif"
     font-size="39px"
     font-weight="normal"
     text-anchor="middle"
     fill="#000000"
     stroke-width="0px">-10</text>
  <text
     id="text963"
     x="690.88116"
     y="655.88214"
     font-style=""
     font-family="KaTeX_Main, serif"
     font-size="39px"
     font-weight="normal"
     text-anchor="end"
     fill="#000000"
     stroke-width="0px">1</text>
  <text
     id="text965"
     x="690.88116"
     y="592.88214"
     font-style=""
     font-family="KaTeX_Main, serif"
     font-size="39px"
     font-weight="normal"
     text-anchor="end"
     fill="#000000"
     stroke-width="0px">2</text>
  <text
     id="text967"
     x="690.88116"
     y="529.88214"
     font-style=""
     font-family="KaTeX_Main, serif"
     font-size="39px"
     font-weight="normal"
     text-anchor="end"
     fill="#000000"
     stroke-width="0px">3</text>
  <text
     id="text969"
     x="690.88116"
     y="466.88214"
     font-style=""
     font-family="KaTeX_Main, serif"
     font-size="39px"
     font-weight="normal"
     text-anchor="end"
     fill="#000000"
     stroke-width="0px">4</text>
  <text
     id="text971"
     x="690.88116"
     y="403.88214"
     font-style=""
     font-family="KaTeX_Main, serif"
     font-size="39px"
     font-weight="normal"
     text-anchor="end"
     fill="#000000"
     stroke-width="0px">5</text>
  <text
     id="text973"
     x="690.88116"
     y="340.88214"
     font-style=""
     font-family="KaTeX_Main, serif"
     font-size="39px"
     font-weight="normal"
     text-anchor="end"
     fill="#000000"
     stroke-width="0px">6</text>
  <text
     id="text975"
     x="690.88116"
     y="277.88214"
     font-style=""
     font-family="KaTeX_Main, serif"
     font-size="39px"
     font-weight="normal"
     text-anchor="end"
     fill="#000000"
     stroke-width="0px">7</text>
  <text
     id="text977"
     x="690.88116"
     y="214.88214"
     font-style=""
     font-family="KaTeX_Main, serif"
     font-size="39px"
     font-weight="normal"
     text-anchor="end"
     fill="#000000"
     stroke-width="0px">8</text>
  <text
     id="text979"
     x="690.88116"
     y="151.88214"
     font-style=""
     font-family="KaTeX_Main, serif"
     font-size="39px"
     font-weight="normal"
     text-anchor="end"
     fill="#000000"
     stroke-width="0px">9</text>
  <text
     id="text981"
     x="690.88116"
     y="88.882141"
     font-style=""
     font-family="KaTeX_Main, serif"
     font-size="39px"
     font-weight="normal"
     text-anchor="end"
     fill="#000000"
     stroke-width="0px">10</text>
  <text
     id="text983"
     x="690.88116"
     y="781.88214"
     font-style=""
     font-family="KaTeX_Main, serif"
     font-size="39px"
     font-weight="normal"
     text-anchor="end"
     fill="#000000"
     stroke-width="0px">-1</text>
  <text
     id="text985"
     x="690.88116"
     y="844.88214"
     font-style=""
     font-family="KaTeX_Main, serif"
     font-size="39px"
     font-weight="normal"
     text-anchor="end"
     fill="#000000"
     stroke-width="0px">-2</text>
  <text
     id="text987"
     x="690.88116"
     y="907.88214"
     font-style=""
     font-family="KaTeX_Main, serif"
     font-size="39px"
     font-weight="normal"
     text-anchor="end"
     fill="#000000"
     stroke-width="0px">-3</text>
  <text
     id="text989"
     x="690.88116"
     y="970.88214"
     font-style=""
     font-family="KaTeX_Main, serif"
     font-size="39px"
     font-weight="normal"
     text-anchor="end"
     fill="#000000"
     stroke-width="0px">-4</text>
  <text
     id="text991"
     x="690.88116"
     y="1033.8821"
     font-style=""
     font-family="KaTeX_Main, serif"
     font-size="39px"
     font-weight="normal"
     text-anchor="end"
     fill="#000000"
     stroke-width="0px">-5</text>
  <text
     id="text993"
     x="738.30853"
     y="44.357159"
     font-style="italic"
     font-family="KaTeX_Main, serif"
     font-size="39px"
     font-weight="normal"
     text-anchor="middle"
     fill="#000000"
     stroke-width="0px">y</text>
  <text
     id="text995"
     x="1042.0294"
     y="681.26642"
     font-style="italic"
     font-family="KaTeX_Main, serif"
     font-size="39px"
     font-weight="normal"
     text-anchor="start"
     fill="#000000"
     stroke-width="0px">x</text>
  <g
     id="g1095"
     style="fill:#c83278;fill-opacity:1;stroke:#c83278;stroke-opacity:1">
    <path
       id="path997"
       d="m 385.21114,1049.2321 0.944,-4.724 0.788,-3.937 0.787,-3.938 0.788,-3.937 0.787,-3.938 0.788,-3.937 0.787,-3.938 0.788,-3.937 0.787,-3.938 0.788,-3.937 0.787,-3.938 0.788,-3.937 0.787,-3.93796 0.788,-3.937 0.787,-3.938 0.788,-3.937 0.787,-3.938 0.788,-3.937 0.787,-3.938 0.788,-3.937 0.787,-3.938 0.788,-3.937 0.787,-3.938 0.788,-3.937 0.787,-3.938 0.788,-3.937 0.787,-3.938 0.788,-3.937 0.787,-3.938 0.788,-3.937 0.787,-3.938 0.788,-3.937 0.787,-3.938 0.788,-3.937 0.787,-3.938 0.788,-3.937 0.787,-3.938 0.788,-3.937 0.787,-3.938 0.788,-3.937 0.787,-3.938 0.788,-3.937 0.787,-3.938 0.788,-3.937 0.787,-3.938 0.788,-3.937 0.787,-3.938 0.788,-3.937 0.787,-3.938 0.788,-3.937 0.787,-3.938 0.788,-3.937 0.787,-3.938 0.788,-3.937 0.787,-3.938 0.788,-3.937 0.787,-3.938 0.788,-3.937 0.787,-3.938 0.788,-3.937 0.787,-3.938 0.788,-3.937 0.787,-3.938 0.788,-3.937 0.787,-3.938 0.788,-3.937 0.787,-3.938 0.788,-3.937 0.787,-3.938 0.788,-3.937 0.787,-3.938 0.788,-3.937 0.787,-3.938 0.788,-3.937 0.787,-3.938 0.788,-3.937 0.787,-3.938 0.788,-3.937 0.787,-3.938 0.788,-3.937 0.787,-3.938 0.788,-3.937 0.787,-3.938 0.788,-3.937 0.787,-3.938 0.788,-3.937 0.787,-3.938 0.788,-3.937 0.787,-3.938 0.788,-3.937 0.787,-3.938 0.788,-3.937 0.787,-3.938 0.788,-3.937 0.787,-3.938 0.788,-3.937 0.787,-3.938 0.788,-3.937 0.787,-3.938 0.788,-3.937 0.787,-3.938 0.788,-3.937 0.787,-3.938 0.788,-3.937 0.787,-3.938 0.788,-3.937 0.787,-3.938 0.788,-3.937 0.787,-3.938 0.788,-3.937 0.787,-3.938 0.788,-3.937 0.787,-3.938 0.788,-3.937 0.787,-3.937 0.788,-3.938 0.787,-3.937 0.788,-3.938 0.787,-3.937 0.788,-3.938 0.787,-3.937 0.788,-3.938 0.787,-3.937 0.788,-3.938 0.787,-3.937 0.788,-3.938 0.787,-3.937 0.788,-3.938 0.787,-3.937 0.788,-3.938 0.787,-3.937 0.788,-3.938 0.787,-3.937 0.788,-3.938 0.787,-3.937 0.788,-3.938 0.787,-3.937 0.788,-3.938 0.787,-3.937 0.788,-3.938 0.787,-3.937 0.788,-3.938 0.787,-3.937 0.788,-3.938 0.787,-3.937 0.788,-3.938 0.787,-3.937 0.788,-3.938 0.787,-3.937 0.788,-3.938 0.787,-3.937 0.788,-3.938 0.787,-3.937 0.788,-3.938 0.787,-3.937 0.788,-3.938 0.787,-3.937 0.788,-3.938 0.787,-3.937 0.788,-3.938 0.787,-3.937 0.788,-3.938 0.787,-3.937 0.788,-3.938 0.787,-3.937 0.788,-3.938 0.787,-3.937 0.788,-3.938 0.787,-3.937 0.788,-3.938 0.787,-3.937 0.788,-3.938 0.787,-3.937 0.788,-3.938 0.787,-3.937 0.788,-3.938 0.787,-3.937 0.788,-3.938 0.787,-3.937 0.788,-3.938 0.787,-3.937 0.788,-3.938 0.787,-3.937 0.788,-3.938 0.787,-3.937 0.788,-3.938 0.787,-3.937 0.788,-3.938 0.787,-3.937 0.788,-3.938 0.787,-3.937 0.788,-3.938 0.787,-3.937 0.788,-3.938 0.787,-3.937 0.788,-3.938 0.787,-3.937 0.788,-3.938 0.787,-3.937 0.788,-3.938 0.787,-3.937 0.788,-3.938 0.787,-3.937 0.788,-3.938 0.787,-3.937 0.788,-3.938 0.787,-3.937 0.788,-3.938 0.787,-3.937 0.788,-3.938 0.787,-3.937 0.788,-3.938 0.787,-3.937 0.788,-3.938 0.787,-3.937 0.788,-3.938 0.787,-3.937 0.788,-3.938 0.787,-3.937 0.788,-3.938 0.787,-3.937 0.788,-3.938 0.787,-3.937 0.788,-3.938 0.787,-3.937 0.788,-3.938 0.787,-3.937 0.788,-3.938 0.787,-3.937 0.788,-3.938 0.787,-3.937 0.788,-3.938 0.787,-3.937 0.788,-3.938 0.787,-3.937 0.788,-3.938 0.787,-3.937 0.788,-3.938 0.787,-3.937 0.788,-3.938 0.787,-3.937001 0.787,-3.937 0.788,-3.938 0.787,-3.937 0.788,-3.938 0.787,-3.937 0.788,-3.938 0.787,-3.937 0.788,-3.938 0.787,-3.937 0.788,-3.938 0.787,-3.937 0.788,-3.938 0.787,-3.937 0.159,-0.79"
       stroke-width="5"
       stroke="#ffa500"
       fill="none"
       style="fill:#c83278;fill-opacity:1;stroke:#c83278;stroke-opacity:1" />
    <path
       d="m 400.80814,1044.9781 -22.687,39.701 -5.672,-45.373 12.762,9.926 z"
       stroke-width="1"
       stroke="#ffa500"
       fill="#ffa500"
       id="path999"
       style="fill:#c83278;fill-opacity:1;stroke:#c83278;stroke-opacity:1" />
    <path
       d="m 569.95314,51.785139 22.687,-39.701 5.672,45.373 -12.761,-9.925 z"
       stroke-width="1"
       stroke="#ffa500"
       fill="#ffa500"
       id="path1001"
       style="fill:#c83278;fill-opacity:1;stroke:#c83278;stroke-opacity:1" />
  </g>
  <g
     id="g1100"
     style="stroke:#188080;stroke-opacity:1;fill:#188080;fill-opacity:1">
    <path
       id="path1003"
       d="m 364.49914,47.532139 1.181,3.149 0.788,2.1 0.787,2.1 0.788,2.1 0.787,2.1 0.788,2.1 0.787,2.1 0.788,2.1 0.787,2.1 0.788,2.1 0.787,2.1 0.788,2.1 0.787,2.1 0.788,2.1 0.787,2.1 0.788,2.1 0.787,2.1 0.788,2.1 0.787,2.1 0.788,2.1 0.787,2.1 0.788,2.1 0.787,2.1 0.788,2.1 0.787,2.100001 0.788,2.1 0.787,2.1 0.788,2.1 0.787,2.1 0.788,2.1 0.787,2.1 0.788,2.1 0.787,2.1 0.788,2.1 0.787,2.1 0.788,2.1 0.787,2.1 0.788,2.1 0.787,2.1 0.788,2.1 0.787,2.1 0.788,2.1 0.787,2.1 0.788,2.1 0.787,2.1 0.788,2.1 0.787,2.1 0.788,2.1 0.787,2.1 0.788,2.1 0.787,2.1 0.788,2.1 0.787,2.1 0.788,2.1 0.787,2.1 0.788,2.1 0.787,2.1 0.788,2.1 0.787,2.1 0.788,2.1 0.787,2.1 0.788,2.1 0.787,2.1 0.788,2.1 0.787,2.1 0.788,2.1 0.787,2.1 0.788,2.1 0.787,2.1 0.788,2.1 0.787,2.1 0.788,2.1 0.787,2.1 0.788,2.1 0.787,2.1 0.788,2.1 0.787,2.1 0.788,2.1 0.787,2.1 0.788,2.1 0.787,2.1 0.788,2.1 0.787,2.1 0.788,2.1 0.787,2.1 0.788,2.1 0.787,2.1 0.788,2.1 0.787,2.1 0.788,2.1 0.787,2.1 0.788,2.1 0.787,2.1 0.788,2.1 0.787,2.1 0.788,2.1 0.787,2.1 0.788,2.1 0.787,2.1 0.788,2.1 0.787,2.1 0.788,2.1 0.787,2.1 0.788,2.1 0.787,2.1 0.788,2.1 0.787,2.1 0.788,2.1 0.787,2.1 0.788,2.099 0.787,2.1 0.788,2.1 0.787,2.1 0.788,2.1 0.787,2.1 0.788,2.1 0.787,2.1 0.788,2.1 0.787,2.1 0.788,2.1 0.787,2.1 0.788,2.1 0.787,2.1 0.788,2.1 0.787,2.1 0.788,2.1 0.787,2.1 0.788,2.1 0.787,2.1 0.788,2.1 0.787,2.1 0.788,2.1 0.787,2.1 0.788,2.1 0.787,2.1 0.788,2.1 0.787,2.1 0.788,2.1 0.787,2.1 0.788,2.1 0.787,2.1 0.788,2.1 0.787,2.1 0.788,2.1 0.787,2.1 0.788,2.1 0.787,2.1 0.788,2.1 0.787,2.1 0.788,2.1 0.787,2.1 0.788,2.1 0.787,2.1 0.788,2.1 0.787,2.1 0.788,2.1 0.787,2.1 0.788,2.1 0.787,2.1 0.788,2.1 0.787,2.1 0.788,2.1 0.787,2.1 0.788,2.1 0.787,2.1 0.788,2.1 0.787,2.1 0.788,2.1 0.787,2.1 0.788,2.1 0.787,2.1 0.788,2.1 0.787,2.1 0.788,2.1 0.787,2.1 0.788,2.1 0.787,2.1 0.788,2.1 0.787,2.1 0.788,2.1 0.787,2.1 0.788,2.1 0.787,2.1 0.788,2.1 0.787,2.1 0.788,2.1 0.787,2.1 0.788,2.1 0.787,2.1 0.788,2.1 0.787,2.1 0.788,2.1 0.787,2.1 0.788,2.1 0.787,2.1 0.788,2.1 0.787,2.1 0.788,2.1 0.787,2.1 0.788,2.1 0.787,2.1 0.788,2.1 0.787,2.1 0.788,2.1 0.787,2.1 0.788,2.1 0.787,2.1 0.788,2.1 0.787,2.1 0.788,2.1 0.787,2.1 0.788,2.1 0.787,2.1 0.788,2.1 0.787,2.1 0.788,2.1 0.787,2.1 0.788,2.1 0.787,2.1 0.788,2.1 0.787,2.1 0.788,2.1 0.787,2.1 0.788,2.1 0.787,2.1 0.788,2.1 0.787,2.1 0.788,2.1 0.787,2.1 0.788,2.1 0.787,2.1 0.788,2.1 0.787,2.1 0.788,2.1 0.787,2.1 0.788,2.1 0.787,2.1 0.788,2.1 0.787,2.1 0.788,2.1 0.787,2.1 0.788,2.1 0.787,2.1 0.788,2.1 0.787,2.1 0.788,2.1 0.787,2.1 0.788,2.1 0.787,2.1 0.788,2.1 0.787,2.1 0.788,2.1 0.787,2.1 0.788,2.1 0.787,2.1 0.788,2.1 0.787,2.1 0.788,2.1 0.787,2.1 0.788,2.1 0.787,2.1 0.788,2.1 0.787,2.1 0.788,2.1 0.787,2.1 0.788,2.1 0.787,2.1 0.787,2.1 0.788,2.1 0.787,2.1 0.788,2.1 0.787,2.1 0.788,2.1 0.787,2.1 0.788,2.1 0.787,2.1 0.788,2.1 0.787,2.1 0.788,2.1 0.787,2.1 0.788,2.1 0.787,2.1 0.788,2.1 0.787,2.1 0.788,2.1 0.787,2.1 0.788,2.1 0.787,2.1 0.788,2.1 0.787,2.1 0.788,2.1 0.787,2.1 0.788,2.1 0.787,2.1 0.788,2.1 0.787,2.1 0.788,2.1 0.787,2.1 0.788,2.1 0.787,2.1 0.788,2.1 0.787,2.1 0.788,2.1 0.787,2.1 0.788,2.1 0.787,2.1 0.788,2.1 0.787,2.1 0.788,2.1 0.787,2.1 0.788,2.1 0.787,2.1 0.788,2.1 0.787,2.1 0.788,2.1 0.787,2.1 0.788,2.1 0.787,2.1 0.788,2.1 0.787,2.1 0.788,2.1 0.787,2.1 0.788,2.1 0.787,2.1 0.788,2.1 0.787,2.1 0.788,2.1 0.787,2.1 0.788,2.1 0.787,2.1 0.788,2.1 0.787,2.1 0.788,2.1 0.787,2.1 0.788,2.1 0.787,2.1 0.788,2.1 0.787,2.1 0.788,2.1 0.787,2.1 0.788,2.1 0.787,2.1 0.788,2.1 0.787,2.1 0.788,2.1 0.787,2.1 0.788,2.1 0.787,2.1 0.788,2.1 0.787,2.1 0.788,2.1 0.787,2.1 0.788,2.1 0.787,2.1 0.788,2.1 0.787,2.1 0.788,2.1 0.787,2.1 0.788,2.1 0.787,2.1 0.788,2.1 0.787,2.1 0.788,2.1 0.787,2.1 0.788,2.1 0.787,2.1 0.788,2.1 0.787,2.1 0.788,2.1 0.787,2.1 0.788,2.1 0.787,2.1 0.788,2.1 0.787,2.1 0.788,2.1 0.787,2.1 0.788,2.1 0.787,2.1 0.788,2.1 0.787,2.1 0.788,2.1 0.787,2.1 0.788,2.1 0.787,2.1 0.788,2.1 0.787,2.1 0.788,2.1 0.787,2.1 0.788,2.1 0.787,2.1 0.788,2.1 0.787,2.1 0.788,2.1 0.787,2.1 0.788,2.1 0.787,2.1 0.788,2.1 0.787,2.1 0.788,2.1 0.787,2.1 0.788,2.1 0.787,2.1 0.788,2.1 0.787,2.1 0.788,2.1 0.787,2.1 0.788,2.1 0.787,2.1 0.788,2.1 0.787,2.1 0.788,2.1 0.787,2.1 0.788,2.1 0.787,2.1 0.788,2.1 0.787,2.1 0.788,2.1 0.787,2.1 0.788,2.1 0.787,2.1 0.788,2.1 0.787,2.1 0.788,2.1 0.787,2.1 0.788,2.1 0.787,2.1 0.788,2.1 0.787,2.1 0.788,2.1 0.787,2.1 0.788,2.1 0.787,2.1 0.788,2.1 0.787,2.1 0.788,2.1 0.787,2.1 0.788,2.1 0.787,2.1 0.788,2.1 0.787,2.1 0.788,2.1 0.787,2.1 0.788,2.1 0.787,2.1 0.788,2.1 0.787,2.1 0.788,2.1 0.787,2.1 0.788,2.1 0.787,2.1 0.788,2.1 0.787,2.1 0.788,2.1 0.787,2.09996 0.788,2.1 0.787,2.1 0.788,2.1 0.787,2.1 0.788,2.1 0.787,2.1 0.788,2.1 0.787,2.1 0.788,2.1 0.787,2.1 0.788,2.1 0.787,2.1 0.788,2.1 0.787,2.1 0.788,2.1 0.787,2.1 0.788,2.1 0.787,2.1 0.788,2.1 0.787,2.1 0.788,2.1 0.787,2.1 0.395,1.052"
       stroke-width="5"
       stroke="#0000ff"
       fill="none"
       style="stroke:#188080;stroke-opacity:1;fill:#188080;fill-opacity:1" />
    <path
       d="m 353.49914,59.378139 -1.693,-45.695 28.771,35.541 -16.078,-1.692 z"
       stroke-width="1"
       stroke="#0000ff"
       fill="#0000ff"
       id="path1005"
       style="stroke:#188080;stroke-opacity:1;fill:#188080;fill-opacity:1" />
    <path
       d="m 751.13714,1037.3851 1.693,45.695 -28.771,-35.541 16.078,1.693 z"
       stroke-width="1"
       stroke="#0000ff"
       fill="#0000ff"
       id="path1007"
       style="stroke:#188080;stroke-opacity:1;fill:#188080;fill-opacity:1" />
  </g>
</svg>
